<svg width="12" height="14" viewBox="0 0 12 14" fill="none" xmlns="http://www.w3.org/2000/svg">
<path d="M10.6667 2H7.88C7.6 1.22667 6.86667 0.666668 6 0.666668C5.13333 0.666668 4.4 1.22667 4.12 2H1.33333C0.979711 2 0.640573 2.14048 0.390524 2.39053C0.140476 2.64057 0 2.97971 0 3.33333V12.6667C0 13.0203 0.140476 13.3594 0.390524 13.6095C0.640573 13.8595 0.979711 14 1.33333 14H10.6667C11.0203 14 11.3594 13.8595 11.6095 13.6095C11.8595 13.3594 12 13.0203 12 12.6667V3.33333C12 2.97971 11.8595 2.64057 11.6095 2.39053C11.3594 2.14048 11.0203 2 10.6667 2ZM6 2C6.17681 2 6.34638 2.07024 6.4714 2.19526C6.59643 2.32029 6.66667 2.48986 6.66667 2.66667C6.66667 2.84348 6.59643 3.01305 6.4714 3.13807C6.34638 3.2631 6.17681 3.33333 6 3.33333C5.82319 3.33333 5.65362 3.2631 5.5286 3.13807C5.40357 3.01305 5.33333 2.84348 5.33333 2.66667C5.33333 2.48986 5.40357 2.32029 5.5286 2.19526C5.65362 2.07024 5.82319 2 6 2ZM2.66667 4.66667H9.33333V3.33333H10.6667V12.6667H1.33333V3.33333H2.66667V4.66667Z" fill="white"/>
</svg>
