<svg width="16" height="16" viewBox="0 0 16 16" fill="none" xmlns="http://www.w3.org/2000/svg">
<path d="M3.66669 14C3.14669 14 2.69335 13.7 2.47335 13.2667L0.733354 6.96L0.666687 6.66667C0.666687 6.48986 0.736925 6.32029 0.861949 6.19526C0.986973 6.07024 1.15654 6 1.33335 6H4.38669L7.45335 1.62C7.57335 1.44667 7.77335 1.33333 8.00002 1.33333C8.22669 1.33333 8.43335 1.44667 8.55335 1.62667L11.6134 6H14.6667C14.8435 6 15.0131 6.07024 15.1381 6.19526C15.2631 6.32029 15.3334 6.48986 15.3334 6.66667L15.3067 6.86L13.5267 13.2667C13.3067 13.7 12.8534 14 12.3334 14H3.66669ZM8.00002 3.16L6.00002 6H10L8.00002 3.16ZM8.00002 8.66667C7.6464 8.66667 7.30726 8.80714 7.05721 9.05719C6.80716 9.30724 6.66669 9.64638 6.66669 10C6.66669 10.3536 6.80716 10.6928 7.05721 10.9428C7.30726 11.1929 7.6464 11.3333 8.00002 11.3333C8.35364 11.3333 8.69278 11.1929 8.94283 10.9428C9.19288 10.6928 9.33335 10.3536 9.33335 10C9.33335 9.64638 9.19288 9.30724 8.94283 9.05719C8.69278 8.80714 8.35364 8.66667 8.00002 8.66667Z" fill="white"/>
</svg>
