<svg width="14" height="14" viewBox="0 0 14 14" fill="none" xmlns="http://www.w3.org/2000/svg">
<path d="M10.3333 13.6667V12.3333H12.3333V10.3333H13.6666V12.6667C13.6666 12.9267 13.56 13.16 13.36 13.36C13.16 13.56 12.9266 13.6667 12.6666 13.6667H10.3333ZM3.66665 13.6667H1.33331C1.07331 13.6667 0.83998 13.56 0.63998 13.36C0.43998 13.16 0.333313 12.9267 0.333313 12.6667V10.3333H1.66665V12.3333H3.66665V13.6667ZM10.3333 0.333328H12.6666C12.9266 0.333328 13.16 0.439995 13.36 0.639995C13.56 0.839995 13.6666 1.07333 13.6666 1.33333V3.66666H12.3333V1.66666H10.3333V0.333328ZM3.66665 0.333328V1.66666H1.66665V3.66666H0.333313V1.33333C0.333313 1.07333 0.43998 0.839995 0.63998 0.639995C0.83998 0.439995 1.07331 0.333328 1.33331 0.333328H3.66665ZM7.66665 10.5L10.3333 8.96666V5.90666L7.66665 7.43999V10.5ZM6.99998 6.27999L9.66665 4.75333L6.99998 3.18666L4.33331 4.75333L6.99998 6.27999ZM3.66665 8.96666L6.33331 10.5V7.43999L3.66665 5.90666V8.96666ZM11.1533 4.06C11.4866 4.27333 11.6666 4.56 11.6666 4.93999V9.15333C11.6666 9.53333 11.4866 9.81999 11.1533 10.0333L7.49998 12.1533C7.16665 12.3667 6.83331 12.3667 6.49998 12.1533L2.84665 10.0333C2.51331 9.81999 2.33331 9.53333 2.33331 9.15333V4.93999C2.33331 4.56 2.51331 4.27333 2.84665 4.06L6.49998 1.93999C6.66665 1.85333 6.83331 1.81333 6.99998 1.81333C7.16665 1.81333 7.33331 1.85333 7.49998 1.93999L11.1533 4.06Z" fill="white"/>
</svg>
