<svg width="16" height="16" viewBox="0 0 16 16" fill="none" xmlns="http://www.w3.org/2000/svg">
<path d="M13.8 2.73333C12.4666 3.2 10.6 3.66666 7.99998 3.66666C5.39998 3.66666 3.39998 3.13333 2.19998 2.73333C1.79998 2.53333 1.33331 2.86666 1.33331 3.33333V12.6667C1.33331 13.1333 1.79998 13.4667 2.19998 13.3333C3.59998 12.8667 5.39998 12.3333 7.99998 12.3333C10.6 12.3333 12.4666 12.8667 13.8 13.3333C14.2666 13.4667 14.6666 13.1333 14.6666 12.6667V3.33333C14.6666 2.86666 14.2 2.53333 13.8 2.73333ZM7.99998 10C6.46665 10 4.99998 10.0667 3.66665 10.2667L6.13331 7.33333L7.46665 8.93333L9.33331 6.66666L12.3333 10.2667C11 10.0667 9.53331 10 7.99998 10Z" fill="white"/>
</svg>
